<svg id="openai-symbol" xmlns="http://www.w3.org/2000/svg" viewBox="0 0 307.08 297.39"><path d="m219.76 28.8-.21.37-1.03 1.76-12.26 21.01-12.13-21.03-1.5-2.59 2.32-3.97h.01l11.18-19.17 11.07 19.18 2.55 4.44zm-70.18 60.49-13.39 22.93-28.66-49.68 26.63.02 15.42 26.73zm15.59-26.71-11.53 19.76-11.41-19.78 22.94.02zm122.62 90.87-11.57 19.76-1.98 3.38-2.67 4.56-1.02 1.75-29.66 50.67-1.79 3.05h-31.14l-2.22-3.86-28.76-49.86-1.93-3.33-1.71-2.98-2.62-4.54-10.74-18.6h26.62l1.77 3.07 11.57 20.07 3.65 6.31 15.55 26.96 3.99 6.92 4.07-6.93 15.77-26.95 3.7-6.31 11.22-19.16 2.32-3.98h27.58zm-174.84-7.33H53.92L68 121.98l31.04.02 13.91 24.12zm-18.09-31.36-22.63-.02L83.6 95.26l11.26 19.5zm211.26 7.37-14.04 23.99H264.5l11.56-19.74.02-.05 2.47-4.22h.01l2.91.01 24.65.01z"/><path style="fill:#22c55e" d="m218.57 89.28-14.77 25.55-25.87-.02 27.71-47.93 12.93 22.4z"/><path d="M199.49 236.62h-25.83l-15.78-27.36 12.93-22.35 28.68 49.71zm-34.33 0h-23.09l11.56-19.99 11.53 19.99zm68.16-121.78-20.85-.01 10.43-18.04 10.42 18.05zm-15.66 158.42-11.52 19.66-2.61 4.47h-96.6l11.78-20.37 2.17-3.76h96.78zm87.69-158.37-22.56-.01-5.54-.01-1.25-2.15-29.15-50.09-2.1-3.62-2.76-4.75-1.6-2.73v-.01l-11.98-20.59 23.88.01 4.22.01 2.24 3.84 11.34 19.49 4.87 8.37 15.13 26 4.01 6.9 11.25 19.34z"/><path style="fill:#22c55e" d="m272.06 119.45-1.55 2.66-11.97 20.45-2.09 3.56h-96.62l11.28-19.51 2.63-4.56h2.81l23.06.01 8.68.01 29.2.01 9.24.01-4.18-7.24-15.02-26.05-4.34-7.52-10.77-18.67-2.16-3.73 2.69-4.64 10.56-18.26 10.64 18.28 2.34 4.02 2.53 4.35 1.82 3.13 28.57 49.11 1.27 2.18.39.67.99 1.73z"/><path d="m252.16 153.45-13.54 23.14h-30.61l-13.34-23.14h57.49zm-17.25 29.45-11.7 20.01-11.55-20.01h23.25zm-105.1 0-28.9 49.53-13.63-23.62 15.12-25.91h27.41zm-34.87 0-11.37 19.47-11.23-19.47h22.6zM62.51 58.68l-2.24 3.83-28.86 49.46-1.61 2.75-2.38 4.07-1.84 3.16-11.83 20.25-11.69-20.27L0 118.36l2.08-3.66 11.41-20.07 3.93-6.91 14.35-25.23 4.75-8.36 11.6-20.39 11.77 20.41 2.62 4.53zm33.19-2.3-21.24-.01h-.01l-4.59-.01-3.08-5-11.85-20.54 23.83.01h2l4.37 7.74L95.7 56.38zm-54.36 97.07-10.61 18.17-2.91 4.97H1.51l12.21-20.91 1.3-2.23h26.32zm105.94-7.33h-25.83l-2.5-4.34L107.53 122l-4.18-7.24-15.47-26.82-4.13-7.16-4.27 7.32-15.55 26.64-4.22 7.24-11.33 19.4-2.77 4.74H19.3l12.02-20.58 2.09-3.58 1.89-3.25 2.32-3.99h.01L66.4 65.43l1.7-2.92 5.12.01 21.18.01h.01l4.64.01 1.82 3.14 28.32 49.1h.01l2.73 4.75 1.44 2.49 2.28 3.93 11.63 20.17zM201.67.07l-12.75 21.82-1.42 2.45h-6.4l-56.07-.04h-12.95l-21.66-.02 10.89-18.66L104.59 0l26.3.02h8.31l27.89.02 9.23.01 25.35.02zM77.78 266.71h-28.7l-1.52-2.63-11.98-20.77-19.09-33.08-4.13-7.16L.73 182.9h28.7l1.5 2.6 31.06 53.85 2.29 3.96 1.42 2.46 12.08 20.94zM201.62 59.89l-1.58 2.71h-.01l-29.06 49.78-1.41 2.42-2.65 4.54-1.57 2.7h-.01l-11.8 20.23-11.68-20.25-1.94-3.37 2.25-3.86 11.13-19.07 4.06-6.95 15.76-26.71 3.87-6.45-7.46-.01-32.65-.01-8.08-.01-21.74-.02h-4.88l-1.7-2.46-11.22-22.26 23.64.02h11.06l59.71.04h1.23l3.1 5.38 10.36 17.95 3.27 5.66z"/><path d="m147 153.45-10.72 18.37-2.78 4.77H60.77l3.65 6.31 15.16 26.3 3.71 6.44 13.63 23.61-2.37 4.06-11.3 19.35-11.16-19.35-2.47-4.26v-.01l-3.7-6.42-28.68-49.72-2.39-4.13 1.28-2.18 12.39-21.23 1.12-1.91H147zm160.08 26.7v.01l-1.58 2.74-11.84 20.54-4.61 8-18.38 31.87-11.85 20.56-11.94-20.56-1.54-2.65 2.36-4.04 28.14-48.07 3.3-5.65 1.34-2.29 2.36-4.02 11.17-19.1 11.02 19.1 2.05 3.56zm-90.24 86.56h-96.15l-2.35-4.06-11.15-19.34-1.77-3.07 30.95-53.53 2.2-3.81 2.05-3.55 1.6-2.76L153.54 157l11.31 19.59 1.62 2.8-2.03 3.51-10.9 18.85-4.25 7.36-19.78 34.2h73.84l2.11 3.67 11.38 19.73zm-102.47 2.79-2.17 3.76-11.42 19.77-11.41-19.77-1.52-2.63v-.01l2.27-3.91 11.33-19.61 11.31 19.61 1.61 2.79zm137.57-2.79h-26.62l-1.9-3.3-11.59-20.1h26.6l2.66 4.6 10.85 18.8z"/></svg>