<svg version="1.0" xmlns="http://www.w3.org/2000/svg" width="1282.667" height="1258.667" viewBox="0 0 962 944">
  <path d="M55.7 43.7c-.4.3-.7 41.3-.7 91V225h182V43h-90.3c-49.7 0-90.7.3-91 .7zm155.8 90.7v64.9l-63.5-.1c-34.9 0-64.3-.1-65.2-.1-1.7-.1-1.8-3.9-1.8-65.1V69l65.3.2 65.2.3v64.9z"/>
  <path d="M107.6 96.6c-.3.9-.6 18.4-.6 39V173h78V95h-38.4c-34.1 0-38.5.2-39 1.6zM264 69v26h26v26h25V43h-51v26zm78-13v13h26v26h-26v26h51V43h-51v13zm78 13v26h26v52h24.9l.3-12.8.3-12.7 39-.5 39-.5.1-9.5c.1-5.2-.1-11-.4-12.8l-.4-3.2H523V69h-25v26h-27V43h-51v26zm156 0v26h26v26h-26v26h26v26h78l-.2 39.2-.3 39.3-12.7.3-12.7.3-.3 12.7-.3 12.7-12.7.3-12.8.3V303h52v-26h52v-24.9l-12.7-.3-12.8-.3-.5-52-.5-52H680V121h26.1l-.3-12.8-.3-12.7-25.7-.3L654 95l-.2-25.8-.3-25.7-38.7-.3L576 43v26zm52 13v13h-26V69h26v13zm104.7-38.3c-.4.3-.7 41.3-.7 91V225h182V43h-90.3c-49.7 0-90.7.3-91 .7zM888 134c0 61.2-.1 65-1.7 65.1-1 0-30.3.2-65 .2l-63.3.2V69h130v65z"/>
  <path d="M784.7 95.7c-.4.3-.7 17.9-.7 39V173h78l-.2-38.8-.3-38.7-38.1-.3c-20.9-.1-38.3.1-38.7.5zM316 134v12.9l-12.7.3-12.8.3-.3 12.7-.3 12.7 12.8.3 12.8.3v52l-12.5.1-12.5.1-.5 12.9-.5 12.9-38.7.3-38.8.2v25l38.8.2 38.7.3.3 12.7.3 12.7 12.7.3 12.7.3.3 12.7.3 12.8H341v-50.9l-12.7-.3-12.8-.3v-26h26l.3 12.7.3 12.8H393v-24.9l-12.7-.3-12.8-.3-.3-12.8c-.2-9.1-.6-12.7-1.5-12.7-.7-.1-6.4-.2-12.7-.3l-11.5-.2-.3-52.3-.2-52.2h-25v13zm78 0v13h25v-26h-25v13z"/>
  <path d="M368.7 147.7c-.4.3-.7 17.9-.7 39V225h24.9l.3-12.8.3-12.7 12.8-.3 12.7-.3V173h-26v-26h-11.8c-6.5 0-12.2.3-12.5.7zm52 0c-.4.3-.7 6.2-.7 13V173h25v-26h-11.8c-6.5 0-12.2.3-12.5.7zM472 160v13h-26v26h26v26h25l-.2-38.8-.3-38.7-12.2-.3-12.3-.3V160z"/>
  <path d="M524.5 148.2c-.3.7-.6 24.2-.8 52.3l-.2 51h-52l-.5-12.9-.5-13H458l-12.5-.1-.5-13-.5-13h-24l-.5 13-.5 13-12.7.3-12.8.3V251h52v26h26.1l-.3 13.2-.3 13.3-12.7.3-12.8.3v50.8l12.8.3 12.7.3.3 13 .3 13 10.2-.3c8.2-.3 12.3.1 21.3 2.2 6.1 1.4 12.7 3.2 14.7 4.1 2 .8 3.8 1.5 4.1 1.5s.6-1.7.8-3.8l.3-3.7 13.1-.3 13-.3v-12.2l-.1-12.2-26-.5-26-.5v-78l26.3-.3 26.2-.2v26h52v-51l-26.2-.2-26.1-.3.2-50.5c.1-27.8-.1-51.3-.4-52.3-.6-1.5-2.2-1.7-12.6-1.7-8.7 0-12.1.3-12.4 1.2z"/>
  <path d="M577.3 173.6c-1 .4-1.3 6.6-1.3 26V225h26l-.2-25.8-.3-25.7-11.5-.2c-6.3-.1-12.1.1-12.7.3zm-311.5 26.1c-1.6.4-1.8 1.9-1.8 12.9V225h25.1l-.3-12.8-.3-12.7-10.5-.1c-5.8 0-11.3.1-12.2.3zm364.5.1-2.3.3V251h26l-.2-25.8-.3-25.7H643c-5.8 0-11.5.1-12.7.3zM81 264.5V277h26v-25H81v12.5zm781 .5v13h-78v52h-78v-26h-26v26h-26v77h26v-52h52v53h-52v26h-26v-26h-26v102.9l12.8.3 12.7.3.3 13.2.3 13.3H628v25h10.8c16.4 0 15.2-1 15.2 13.5 0 10.6.2 12.4 1.6 12.7.9.2 6.8.2 13 0l11.4-.3V537h26v-25h-26v-26h-26v-27h26v25.9l12.8.3 12.7.3.3 12.7.3 12.7 12.7.3 12.7.3.3 13.2.3 13.3H706v51h25.9l.3-12.8.3-12.7 11.5-.1c6.3-.1 12.1-.2 12.8-.3.9-.1 1.2-3.4 1.2-13.1v-13h26v-25h-26v-26h-26v-53h26v-78h104v-52h26v-26h26v-25h-52v13zm-26 51.5V330h-26v-27h26v13.5zm-781-13V329h26v-51H55v25.5zm52 0V329h26v-26h26v-25h-52v25.5zm79-13V303h25v-25h-25v12.5zm207.8.2-.3 12.8-12.7.3-12.7.3-.3 12.7-.3 12.7-12.7.3-12.8.3V355h77l.2-25.8.3-25.7 12.8-.3 12.7-.3V278h-50.9l-.3 12.7zM212 304.5c-.1.3-.1 5.8-.1 12.2v11.8l12.5.3 12.6.3V304h-12.5c-6.9 0-12.5.2-12.5.5zm52 25V355h25v-51h-25v25.5zm260-13v12.6l12.8-.3 12.7-.3.1-12.3V304H524v12.5zM81.2 342.2l.3 12.3 12.8.3 12.7.3V330H80.9l.3 12.2zm78.6-2c-.2 5.7-.2 11.3 0 12.5l.3 2.3H211v-25h-50.9l-.3 10.2zm52.2 28.3v12.4l12.8.3 12.7.3.3 12.7.3 12.8H263v-51h-51v12.5zm103.8.2-.3 12.8-12.7.3-12.7.3-.3 12.7-.3 12.7-12.7.3-12.8.3v24.8l12.8.3 12.7.3.3 12.7.3 12.8H315l.2-25.8.3-25.7h26l.3 12.7.3 12.8H367v-50.9l-12.7-.3-12.8-.3-.3-12.8-.3-12.7h-24.8l-.3 12.7zM602 381.5V407h26v-51h-26v25.5z"/>
  <path d="M862 369v13h-26v25h26v26h26v-26h26v-51h-52v13zM81 394.5V407h52v-25H81v12.5zm78.9-11.8c-.1.5-.2 6.1-.3 12.5l-.1 11.8H185v-25h-12.5c-6.9 0-12.6.3-12.6.7zM394 394.5V407h26.7l6.1-4.9c3.4-2.7 8.8-6.6 12.2-8.7 5.7-3.5 6-3.9 6-7.5V382h-51v12.5zm156 0V407h12.4c9.4 0 12.5-.3 12.9-1.3.3-.8.4-6.3.4-12.3l-.2-10.9-12.7-.3-12.8-.3v12.6zM55.7 408.7c-.4.3-.7 17.7-.7 38.5V485h26v-77H68.7c-6.8 0-12.7.3-13 .7zm78 0c-.4.3-.7 6-.7 12.5V433h26v-25h-12.3c-6.8 0-12.7.3-13 .7zm78.3 11.8V433h25v-25h-25v12.5z"/>
  <path d="M784 434v26h-26v25h52v53h-26v12.5c0 9.3.3 12.5 1.3 12.5.6.1 6.4.2 12.7.3l11.5.2.3 12.7.3 12.8h25.8l.3-12.8.3-12.7 12.7-.3 12.7-.3.3-12.7.3-12.7 25.8-.3 25.7-.2V434h-26v52h-52v-26h-26v-52h-26v26zm-349-8.2c0 .5 7.5 10.2 16.7 21.6l16.7 20.8 2.2-6.8c2.9-9.3 8.4-28.8 8.4-30.1 0-.6-3.3-1.3-7.2-1.7-7.5-.7-29.1-3.3-34-4.1-1.6-.2-2.8-.1-2.8.3zm45 13.3c-1.2 4.1-3.2 11-4.5 15.4-3.3 11.2-3.8 14.2-2.6 14.9.6.4 7.5 1.6 15.3 2.6 7.9 1.1 16.9 2.5 20.1 3.1 3.3.6 6.1.9 6.3.6.4-.3-29.2-40.6-31.6-43.1-.5-.5-1.8 2.3-3 6.5zm-46-5.2c0 .5 2.3 2.9 5.2 5.3 5.4 4.5 5.5 3.9.4-2.5-2.7-3.4-5.6-4.9-5.6-2.8zm-326.6 1.4c-.2.7-.3 6.2-.2 12.3l.3 10.9 12.8.3 12.7.3V434h-12.5c-9.5 0-12.7.3-13.1 1.3z"/>
  <path d="M159.6 435.7c-.3 1-.4 5.8-.2 10.8.6 14.3 1.6 13.4-13.3 13.7l-12.6.3-.1 12.5-.1 12.5-26.2.3-26.1.2v25h13c9.7 0 13 .3 13.1 1.2 0 .7 0 6.4-.1 12.7s.3 11.7.8 12c.6.3 6.4.5 13.1.3l12-.3.3-12.7.3-12.7 12.7-.3 12.7-.3.3-12.7.3-12.7h78v26l-39 .5-39 .5v24l13 .5 13 .5.3 12.7.3 12.7 11.5.3c6.4.2 12 .1 12.5-.2.4-.3 1-6.2 1.1-13l.3-12.5h26l.3 12.7c.2 9.2.6 12.8 1.5 12.9.7.1 6.4.2 12.7.2l11.5.2v26l-12.7.3-12.8.3v12.4c0 12.1.1 12.5 2.3 13 1.2.3 12.6.4 25.2.3l23-.3.5-26 .5-26 12.7-.3 12.8-.3.2-25.7.3-25.7 12.7-.3 12.7-.3.3-12.7.3-12.7h26l.3 12.7.3 12.8H393v-51h-76.9l-.3 12.7-.3 12.8h-52l-.3-25.8-.2-25.7h-24.9l-.3 12.7-.3 12.8h-26l-.3-12.8-.3-12.7h-25.4c-23.3 0-25.4.1-25.9 1.7zm129.9 88.8v13h-26l-.3-11.9c-.1-6.6 0-12.6.2-13.3.4-1.1 3.4-1.3 13.3-1.1l12.8.3v13zm104.6-78.3.1 12.3 1.7-7.5c1-4.1 2.5-9.2 3.4-11.4 2.3-5.3 2.2-5.6-1.8-5.6H394l.1 12.2zm174.4-10.5c.5 1 1.9 5.6 3.3 10.3 1.3 4.7 2.8 8.9 3.2 9.3s.7-4.2.8-10.2l.1-11.1h-4.1c-3.4 0-3.9.2-3.3 1.7zM836 446.5V459h26v-25h-26v12.5zm-316 9.2c-8.4 1.3-13 2.6-13 3.4 0 1.2 4.6 8 8.8 12.8l2.9 3.5 3-8c4.7-12.2 4.7-12.4 2.6-12.3-1 .1-2.9.4-4.3.6zm7.7 2.8c-.9 2-1.7 3.8-1.7 4 0 .3 2.3.5 5 .5 2.8 0 5-.4 5-.8s-1.5-2.3-3.3-4l-3.3-3.2-1.7 3.5zm48.3 14V485h26v-25h-26v12.5zm-104 1.9c0 1.8 4.8 20.7 5.4 21.4.5.4 29.6-13.1 33-15.4 2.6-1.7 2.5-1.7-17.9-4.8-19.7-3-20.5-3.1-20.5-1.2zm-5.2 5.4c-.9 3.1-3.6 12.8-6.2 21.4-2.5 8.7-4.6 16-4.6 16.4 0 .7 4.8-2.7 12.8-9.1l6.4-5-.6-4.6c-.5-4-5.4-24-6-24.6-.1-.1-.9 2.3-1.8 5.5zm39.8 5.2c-10.2 5.1-10.8 5.8-2.1 2.5 3.9-1.4 7.8-2.9 8.7-3.2 1.6-.5 3.4-3.3 2-3.3-.4.1-4.2 1.9-8.6 4zm65.5 13.8c-3.4 11.7-10.6 24.4-20.5 36.2-3.4 4.1-12.9 11.5-20.5 16l-7.1 4.2V590h-26v26h-26.1l.3 12.7.3 12.8 12.8.3 12.7.3V668h12.5c9.3 0 12.5-.3 12.5-1.3.1-.6.1-12.3.1-26-.1-22.8.1-24.7 1.7-24.7.9 0 18.6-.2 39.2-.3l37.5-.2.3-25.8.2-25.7h-26v26h-26v-12.5c0-6.9-.1-12.8-.2-13.3-.2-.4 5.1-.8 11.7-1 12.3-.3 14.6-.6 14.4-1.9-.1-.4-.1-6.1 0-12.6l.1-11.7h52v-25h-52v-9.9c0-5.5-.4-10.2-.9-10.5-.4-.3-1.8 2.9-3 7.2zM55 537.5V563h52v-25H81v-26H55v25.5z"/>
  <path d="M342 524.5V537h25v-25h-25v12.5z"/>
  <path d="M394 525v13h-25.9l-.3 12.7-.3 12.8-25.8.3-25.8.2.3 12.6.3 12.7 11-.2c6.1-.1 11.8.1 12.8.5 1.5.5 1.7 2.3 1.7 13.5V616h37.3c20.5-.1 37.8-.4 38.4-.8.9-.6 1.3-7.6 1.5-26.2l.3-25.5 12.5-.2 12.5-.1.3-4c.3-3.9.2-4.1-5.3-7.2-14.1-8.1-26.2-20.4-34.8-35.3-2.6-4.4-3.1-4.7-6.7-4.7h-4v13zm-182 51.5V589h25v-25h-25v12.5zm260 0V589h25v-25h-25v12.5zm286 .5v13h-26.1l.3 12.7.3 12.8 10 .2c5.5.1 11.2.2 12.8.2l2.7.1v52h-26v-26h-52v26h-26.1l.3 12.7.3 12.8 12.8.3 12.7.3V720h-26v26h-26v26h-51.9l-.3-12.8-.3-12.7-25.7-.3-25.8-.2v52h26v52h-27v-51.9l-12.7-.3-12.8-.3-.3-64.8-.2-64.7h-25v26.1l-13.2-.3-13.3-.3-.3-12.7-.3-12.7-12.7-.3-12.7-.3-.3-12.8-.3-12.7H394v78h52v26h26v52h-53v-26h-25v52h26v52h25v-26h25.9l.3-12.8.3-12.7 13.3-.3 13.2-.3V876h-52v26l51.8-.2 51.7-.3.1-6c.1-3.3.2-9 .3-12.7l.1-6.7 12.8-.3 12.7-.3.3-12.8.3-12.7H680v26h-26v26h52v-26h26v26h52v-26h26v26h26v-26h26v26h26v-26h-26v-26h52v-52h-26v26h-26v-26h-26v-26h78v-26h-52v-26h52v-26h-52v-52h11.4c6.3 0 12.1-.3 13-.6 1.3-.5 1.6-2.6 1.6-13V616h-26v-26h-26v26h-26v-26h-26v-26h-26v13zm52 78.1V668h26v78h-26v-78h-26v-25.9l2.8-.3c1.5-.2 7.3-.2 13 0l10.2.3v13zM784 733v39h-78v-78h78v39zm-104 39v26h26v26.1l12.8-.3 12.7-.3.3-12.8.3-12.7H758v78h-25.9l-.3-12.8-.3-12.7-12.7-.3-12.8-.3V824h-78v-25.9l12.8-.3 12.7-.3.3-25.8.2-25.7h26v26zm-78 39v13h-26v-26h26v13zm234 52v13h-26v-26h26v13z"/>
  <path d="m732.2 732.7.3 12.8h25l.3-12.8.3-12.7h-26.2l.3 12.7zM862 576.5V589h26v-25h-26v12.5zM55.2 641.7l.3 51.8h51l.3-12.8.3-12.7H81v-78H55l.2 51.7zm78.3-50.7c-.7 1.1-.4 21.6.3 23.7.4 1.4 16.2 1.8 22.1.7l3.1-.7V590h-12.4c-7.5 0-12.7.4-13.1 1zm52.3 24.7-.3 25.8-25.5.3c-18.3.2-25.6.6-26.1 1.4-.9 1.5-1.2 46.9-.3 49.2.5 1.4 2.4 1.6 13 1.6H159v-26.1l13.3.3 13.2.3.3 12.7.3 12.8H237v-26h-26v-26h26v-26h-26v-26h-25l-.2 25.7zm260.4-13 .3 12.8h24l.3-12.8.3-12.7h-25.2l.3 12.7zM316 629v13h25v-26h-25v13zm-26 39v26h25v-52h-25v26zm52.2-13.3.3 12.8h24l.3-12.8.3-12.7h-25.2l.3 12.7zm233.8.3v13.1l12.8-.3 12.7-.3.3-12.8.3-12.7H576v13zm52.2-.3.3 12.8h25l.3-12.8.3-12.7h-26.2l.3 12.7zM550 681v13h-26v26h51l.5-2.3c.3-1.2.4-12.8.3-25.7l-.3-23.5-12.7-.3-12.8-.3V681zm-286 39v26h25v-52h-25v26zm52 0v26h26v26h51v-52h-52v-26h-25v26zm-260.5 1.2c-.3.7-.4 41.6-.3 90.8l.3 89.5 90.8.3 90.7.2V720h-90.5c-71.5 0-90.7.3-91 1.2zM212 811v65H81V746h131v65z"/>
  <path d="M107.5 774.2c-.3 1.3-.4 18.7-.3 38.8l.3 36.5 38.8.3 38.7.2v-78h-77l-.5 2.2zM576 733v13.1l12.8-.3 12.7-.3.3-12.8.3-12.7H576v13zm-286 26v13h25v-26h-25v13zm52 52v13h-52v26h-26v26h26v26h25v-52h27v26h25v-26h26v-26h-26v-26h-25v13z"/>
</svg>
